<svg xmlns="http://www.w3.org/2000/svg" viewBox="0 0 193.72 181.03"><defs><style>.logo-color{fill:var(--fg-color, #42b983);fill-rule:evenodd;}.logo-white{fill:#fff;}</style></defs><title>phoebix_vector</title><g id="Color"><path class="logo-color" d="M198.72,143.76c-3.85-3.59-1-16.7-5.52-16.32.47-3.54-1.12-11.53-3.6-15.36.79-.79,2.36-.11,3.36.24-.53-2.64-2.8-4-5-5.52.47-.16,2.76-.7,3-.72-2.44-1-6.2-3.24-5.5-6,.38-1.47,3.77,0,4.67-1.35,2.42-3.65-.2-3.63-.21-6.38s.4-5.5-1.37-9.7l.4-3.82q-4.68-.61-3-4.7c-.33-.89-1.75-5.92-1.77-5.79l2.56-.51c0-2.27-3-5-4-7.75q1.45-.82,2.5,1c.51-3,.33-2.58-.25-5.5,0,8.28-13.82-2.28-7.41-4.11-.36-1.35-4.13-5.24-4.42-5.52.16.15-4.62-3.22-4.66-3.36A3.67,3.67,0,0,0,171.13,40c-5.19.41-4.63,4.32-5.64-2.14a25.49,25.49,0,0,1,1.22-5.9c3.31-3.17,2.65-1.08,5.38-.12,5.1,1.78,4.34,5,6.38,10.42.29.77,3.16,8.06,5.34,8.06,1-7.51-3.3-14.06-8.44-18.77-4.71-4.32-7.07-7.08-10-12.91-2,4.72-.3,6.74-5.26,8.88-1.36-2.28,2.67-6.35,2.87-9.52-3.65.91-2.71-3.29-5.43-4.18-1.69-.55-4.52,2.82-5.65,2.26l1.2-5.52c-3.39-.68-1.94-.16-4.08,1.44-1.92-7-12.83-5.3-18.57-5.37-6.59-.08-12.38-2.06-18.87-2.31-5.77-.22-12.93.69-19.14,1-19.77,1-42,4.38-53.58,21.8,1.16.79,6.1,2.74,3.84,5.76-1.2,1.6-5.17-.38-5.36-.1,1.63-2.44-4.39,3.9-1.9,2.1-1.43,1,2.82,3.29,1.8,4.65s-4.76-2.85-6.06-.9c.63,1.88,2.45.09,3.12,1.44-.46,2.18-2.83-.14-4.08.48,3.85,5,4.61,1.39,1.44,4.56,2.82,4.34,6.64,6.61-1.68,4.12,2.26,6.77-7.48,2.12-11.75,4.25,1,1.56,8.75,5.8,8.75,5.75-1.9-.51-6.56-3.57-8.55-3.52-5.26.13-4.7,2.49-6.16,8.78C11.78,66.73,9.47,74,11,75.56c1.77,1.79,11.12-5,13.46-1.52C23.3,79.84,11,74.2,11,80.14c-2.95-2-4.53,5.22-4,7,.77.27,1.69-.91,2.36-.24A2.47,2.47,0,0,0,8,89.28c4,.95,6.81-3.94,11.68-3-.8,2.71-1.37,8-4.76,8-.43.5,2.08-2,2.08-2.62-5,.07-10.19,2.62-12,7.38,3.88-1,5.9-.24,2.92,3.64.89.94,6.82-2.39,8.16-2.4q-2.78,1.41-1.54,3.54a12.57,12.57,0,0,1,.82,3.9c-.65,1.08-5.56,2.84-5.36,3.36,0-.08,9.6,5.9,8.48,5.76-.49,2.06-3.56,3.68-4.48,5,8.59-1.15-1.16,7.91-.8,11.52a10,10,0,0,1,4.56-3.6c-1.21,4.83-3.65,5.62-5.52,9.36,4.43-.53,4.63-4.25,8.64-6,1.37,4.51-2.6,4.72-4.32,8.4q2.48,2.05,5.76-1c-1.82,4.25,2.74-1.17,4.08-.72q-1.9,3.13-3.84,6.24c1.52-.7,4.69-2.79,6.44-2.4a20.94,20.94,0,0,0-3.32,3.84c4.55,2.27-5.94,7.62,3.3,7.16a21.85,21.85,0,0,1-2.81,5.52c4.28.11,2.15-.83,3.52,2.64,9.43-2.42.73,10.67,7,7.44a45.85,45.85,0,0,1-4.45,7c3,1.91,5.15-1.09,8.2-2.64q1.06.62-.18,1.47c3.86-.65,15.48-2.58,18.91-5.71a8.13,8.13,0,0,1-.18-4.15q-.17-2.71,3.06-3.33c2.23-2.53,8.62-6.21,11-3.09-6.65,6.49-17,15.73-19,25.44,2.1,0,6.74-9.47,8.07-10.89,2.76-3,7.46-7.11,11.67-7.11-1.31,4.86-8.45,4.67-9.78,9.52,2.15-.56,15.58-11.54,17.66-7.38a8.44,8.44,0,0,0-3.58,2.86c4.85,0-1.19,3.31-1.19,6,2.3-1.64,3.87-3.72,6.44-5l-1.91,5.48c4.54-4.71,13.88,1.78,13.6,6.19,7.18-.15,12.77-1.34,19.55-6.26,5.89-4.28,4.29-3.47,10.08-2.42,3.73.68,7.15,3.23,11.42,3.44.56-5,2.39.84,5.05-1.91,5.88-6.08,5.62-11.21-1-15.23-1,6.39-13.79,1.56-18.14,6.9q-2.51-2.08-4.3.71c-2.09-3.13-19.26-2.9-19.33-3.57-.28-2.49,17.81-7.75,20.52-8.57,0-1.65-10.5-5.33-12-6.66.26-1.9,3.55.13,4.41-1.66-2.51-2.31-6.46-2.19-7.38-4.78-1.14-3.24,3-6.12,2.24-9.62h2.42c-2.66,1.82-1.63,4.57,1.35,6,5.61,2.66,3.48-3.25,8-5,2.46-1,11.62.55,13.55,2.23,5.76,5.05,2,4.13-.55,7.85,5.73,1.83-1.42,6.31,1.15,10.13,1.11,1.64,6.4,2,7.35,2.35,8.81,3.23,17.06,5.5,25.75,8.88-1-3.22-13.72-5.15-9.75-9.6,3.72-4.17,20.07,10.48,21.59,8-1.15-1.53-7.09-4.22-7.09-6q2.79,1.72,3.5-.23c-5.37-2.15-18-1.5-13.07-9.57,3-4.91,11.84-1.65,16.65-.54-.75-3.24-4.25-1.74-4.44-4.48,1.75-.78,7.63.18,8.49-1-1.66-5.33-9.57-2.65-11-5.36,4.05-5.66,9.65-6.68,16-6.68-.21.68-2.78,2.43-2.18,3.19,1.47,1.84,4.5,2.27,5,4.7,1,4.61-2.6,2.21-6.2,3.45.53,1.39,11.24,6.47,12,6.37C199.46,149.4,195.61,149.83,198.72,143.76Zm-8.64-49.2C190,95.08,190,94.74,190.08,94.56Zm-22.8-67.68q2.55-.11,2.64,1.92C168.22,29.93,165.7,29,167.28,26.88ZM21.12,131.32c-.83,1,1-3.93,2.64-1.48ZM39,168.72,37,170v-3.44Q39.39,166.84,39,168.72Zm24.8-44.45L65,126.76c-12.5-.74-1.79.83-4.32-1.44ZM68.4,132c.62,3.1-6.37-.45-5.76-2.88ZM60,125.32S60,125.35,60,125.32Zm-3.64,3.32C64,126.1,54.14,133.42,56.36,128.64Zm-1.52,3.76c16.92.17,3.72,12.43-2.13,7.76.51-2.7,3-3.23,4.4-5.27q-1.24-2.25-3.71.4Zm-3.48,2.92c0,.21.07-.36.24,2,0,0-1.35-.1-1.2.2Zm10.56,5c7.12-.57-10.1,11.17-13,4.32C52.14,141.07,58,142.45,61.92,140.32ZM48.48,148.8c.15-.73,16.31-4,18-2.4,3.21,3.12-3.72,6.81-4.52,7.12C56.9,155.49,51.73,152.51,48.48,148.8ZM61,162.32c-1.92,1-1.92,2.28-4,2C58,162.53,59.8,162.4,61,162.32Zm-5.32-1c-1.48-5.47.17-4.33,4.8-5.52-.92.24,9.81-.77,10.24-.28C68.93,159.57,59.42,161.45,55.68,161.32Zm11.52-32c-1.27,0,1.53-2.57,3.48-2.4,3.66.32,1.13,1.58,3.72,3.84Zm16.8,38q-1.38.5-1-.75C84,166,86.11,166.27,84,167.32Zm7.68,13.4Zm-5.76-61.44c-4.56,1.9-11.14,1.38-13.94-1.45-5.38-5.45-4.24-11.82,1.93-14,2.76-1,12.09-2,13.13-1.52,1.56.7,1.23,2.38,2.2,2.94a66.34,66.34,0,0,1,5.56,3.93C92.48,113.08,87.45,114.84,85.92,119.28Zm14.16-18.72c-4.68,2.34-4.39-1.19-4.41-4.72,0-.41,2.13-.33,2.49-1.16.9-2.09-.52-3.87,0-6.12C102.94,90.67,101.24,96.85,100.08,100.56Zm1.78,45.07a5.94,5.94,0,0,0,.14,1A5.28,5.28,0,0,1,101.86,145.63ZM109.2,7.44C109.29,7.27,109.45,7.69,109.2,7.44Zm.48.48C110.16,7.2,110.35,7.25,109.68,7.92Zm1.2-1.44C112.78,4.81,111.28,6.21,110.88,6.48Zm7.25-1,.19.24A2.6,2.6,0,0,1,118.13,5.52Zm52,156.48c.9,1.79-5.33-3-1.37,0Q165.65,159.93,170.16,162Zm-5.76-3.12a2.6,2.6,0,0,1-.19-.24Zm9.12-109.44c3.78.76-1,3.53-1.92,1.68ZM139.92,6.72C139.6,7,139.1,7.13,139.92,6.72ZM135.5,108.16c-2.52-1.52-7.57-2.77-8.75-6,.14.39,2.08-7.45,1.75-7.25,5.81-3.47,4.52,7,7.07,7.55-.42-.1,5.21-4.31,6.89-4.91,2.66-1,7.44-1.2,9.94.33,9.12,5.58-2.4,7.4-2.4,13,1.34,0,5.49-1.81,6.38-.74C148.47,120.24,143.72,113.11,135.5,108.16Zm23.62,19.52c-3-3-6,.25-8.64-3.84,1.66-3,4.54-5.52,7.92-5.52-.22.88-1.11,1.38-.72,2.16,2.45-.49,3.76-5.65,7.68-4.08.08,1.31-2.58,2.69,1,1.68-2.52,5.66,3.93,1.25,3.38,4.13C168.94,126.3,163.08,127.67,159.12,127.68Zm14.51,6.46c-3.23,3-6,4.34-10.28,2.29a1.45,1.45,0,0,0,1.86.07q-3.23.36-3.55-1.84-.69-1.76,2.11-2.37c-1.48-2.83,11.16-2.42-2.76-3.16C161,121.55,179.35,128.43,173.63,134.14Zm3-42.5c-3.36-2.88-13.67,5.51-15.6,1.2-2.25-5,18.88-3.58,21.12-3.6A11.82,11.82,0,0,1,176.6,91.64Zm2.8-10.72C177.68,76.34,189,76.8,179.4,80.92Z" transform="translate(-5 -4.29)"/><path class="logo-color" d="M40,176.6C40.49,175.85,40,176.12,40,176.6Z" transform="translate(-5 -4.29)"/><path class="logo-color" d="M180.48,153.36c.95-.95-1.27-2-2.16-2.16Q179.39,152.29,180.48,153.36Z" transform="translate(-5 -4.29)"/><path class="logo-color" d="M181.92,153.88q.51,1.52,1.68,1.44A1.74,1.74,0,0,0,181.92,153.88Z" transform="translate(-5 -4.29)"/></g><g id="White"><path class="logo-white" d="M111.6,4.56a2.52,2.52,0,0,0-2.16,0C111,6.59,111.38,7,111.6,4.56Z" transform="translate(-5 -4.29)"/><path class="logo-white" d="M102,6.32c1.28-.51,1.46-.71-.24-1A1.25,1.25,0,0,1,102,6.32Z" transform="translate(-5 -4.29)"/><path class="logo-white" d="M118.32,5.32a.84.84,0,0,0-.72-.48Q117.83,5.4,118.32,5.32Z" transform="translate(-5 -4.29)"/><path class="logo-white" d="M140.4,7.32h.24C140.56,6.88,140.48,7,140.4,7.32Z" transform="translate(-5 -4.29)"/><path class="logo-white" d="M139.44,7.32h.48S139.6,7,139.44,7.32Z" transform="translate(-5 -4.29)"/><path class="logo-white" d="M109.68,8.32q1.1-.9-.24-1C109.15,7.65,109.18,8.32,109.68,8.32Z" transform="translate(-5 -4.29)"/><path class="logo-white" d="M93.36,16.32a12.3,12.3,0,0,1,.53-4.15c.18-.57,1.91-2.31,1.87-2.57-.41-3.13-4.69-1-6.48-1C89.89,10.14,92.71,16.16,93.36,16.32Z" transform="translate(-5 -4.29)"/><path class="logo-white" d="M85.36,13.68c2-1.63,4.23-3,1.44-5.28-1.34,2.69-4.26-.57-5.39,2.17C80.66,12.38,83.82,13.64,85.36,13.68Z" transform="translate(-5 -4.29)"/><path class="logo-white" d="M63.62,14.29c1.16-1.54-.42-4.37-2.14-3.05C60.11,12.28,62.56,14.33,63.62,14.29Z" transform="translate(-5 -4.29)"/><path class="logo-white" d="M109.68,11.88C109.12,14.69,112,12.54,109.68,11.88Z" transform="translate(-5 -4.29)"/><path class="logo-white" d="M57.12,15.84c-1.06-4.79-2.81-2.91-3.84-.48Q55.21,15.54,57.12,15.84Z" transform="translate(-5 -4.29)"/><path class="logo-white" d="M108.72,17.12q-.92,1.55.48,1.2Z" transform="translate(-5 -4.29)"/><path class="logo-white" d="M85.67,29.73A10.54,10.54,0,0,0,85,25c2.36-.62,5.86,4.69,2.15,2.22-1.82,1.21,1.48,8.08,3.69,8.08-1.53-4.36-2.08-4.38,2.08-6.46,1,1.57,2.16,9.12,3.49,9.46,1.78.46,4-6.27,5.59-7.2l.24,2.88c2.71.12,4.34.53,6.09-1.72,3.62-4.65-.72-2.63-1.29-3.56A6.94,6.94,0,0,1,105.81,25a32.26,32.26,0,0,1,1.83-3.1c0-2.9-1.53.19-2.76-3.07-1.8.5-3.31,2.38-4.87,3.33-2.26,1.38-2.41,1.14-5.21,1.47,1.15-1.58.87-3.46,1-5.28-2.81,1.61-1.28,6.25-3,7.35-1.31-1.26-1.61-5.3-2.58-5.43S87,23.46,87,24.56A9.17,9.17,0,0,0,85.22,22c-1,.72-.71,1.5-.66,2.65q-1.34,1.05-2.22-1c-.72,1,.75,1.23.22,2.35-.13-.19-3.74-3.79-2.67,0C80.34,27.55,83.93,29.75,85.67,29.73Z" transform="translate(-5 -4.29)"/><path class="logo-white" d="M128.57,20.82c-.65,2.17-2.91,3.1-3.73,5-1.84,4.33.93,1.3,2.89,4,1.71,2.34-3.17,7.47-3.72,10.5,5.5-3.67,1.32,2.18,2,4.68,1.19,4.12,3.1-.45,3.48-2.76,2.27,2.59,1.13,2.49,1.27,5.36.05,1.13-.26,2.94.89,3.52a12.26,12.26,0,0,0,1.2-4.8c-1.16,0,1.35,3.8,1.76,4,.18-1.26.18-1.88,1.2-2.56a33.52,33.52,0,0,1,.72,4.8c1.64,1.88,4.1-.21,4.59-1.29.83-1.85-.18-2.65,1-4.37a9.36,9.36,0,0,1,4.3-3c.82,2.46-1.4,4.07-1.4,6.65,2.34-2.74,3.12-7.07,3.65-10.5q-1,.94-1.83.25l1.6-4.5a1.86,1.86,0,0,0-2.28-1c-.55-2.12-.2-5.06-.23-7.25-2,.14-2.62,2.71-4,3.13-2.22.7-2.44-3.57-3.34.37-1.4-1.51,0-3-.23-4.75-1.67,0-1.58,3.63-1.83,5-1.19,0-2.16-2.14-2.51.5.13.24-1.57-2.1-1.38-1.5-.82-2.49,1-1.56,1.39-3.71.51-2.52,1.83-3.65-2.75-3-1.08-2,3.49-2.49,2.54-4.5a10,10,0,0,0-4.37,1.75c.11.15-1-3.63-1.6-1.75C127.53,20.11,127.23,20.4,128.57,20.82Z" transform="translate(-5 -4.29)"/><path class="logo-white" d="M110.26,21.16c.13.67.78,5,1,5.16,1.56,1,2.66-5.26,2.87-6A3.82,3.82,0,0,0,110.26,21.16Z" transform="translate(-5 -4.29)"/><path class="logo-white" d="M123.36,25a29.27,29.27,0,0,0,2.16-4.32C122.5,19.78,117.6,23.39,123.36,25Z" transform="translate(-5 -4.29)"/><path class="logo-white" d="M82,23.32q.57-1.39-.72-1.44C81.28,22.79,81.09,23.32,82,23.32Z" transform="translate(-5 -4.29)"/><path class="logo-white" d="M114,30.31c2.25-.39,3.78-5,4-7C116,23.32,112,29,114,30.31Z" transform="translate(-5 -4.29)"/><path class="logo-white" d="M75.36,32.16c3.27-1.64-1.51-5.61-4.08-4.32C72.47,29.17,73.81,31.27,75.36,32.16Z" transform="translate(-5 -4.29)"/><path class="logo-white" d="M122.16,32.4c.37-.91,1-3.18.2-3.81C120.65,30,118.29,33.31,122.16,32.4Z" transform="translate(-5 -4.29)"/><path class="logo-white" d="M69,28.32C67.24,29,68.4,31,69,28.32Z" transform="translate(-5 -4.29)"/><path class="logo-white" d="M68.11,29.85c-.29.05-.24.1-.19.15S68.11,29.9,68.11,29.85Z" transform="translate(-5 -4.29)"/><path class="logo-white" d="M38.57,75l-.49-1c1-1,3.19,1.28,4.8,1.14,3.57-.31,1.3-.7,3.19-2.67,1.56-1.62,5.86-2.87,6.72-4.6-4.51-2.25-1.51-2.56,1.72-4.17-.84-3-1.68-3.93-3.94-6-.91-.84-5-3.89-4.58-5.37.61-2,7.34,5,9,5,0-2.59,1-2.57,3.5-1.45-1.45-2.15-1.53-5.61,2.25-4.55-.27-1.8-4.94-8.66-4.15-9.52,1.5.44,9.49,7.83,7.4,1.86-.39-1.12-2.15-1.37-3-2.38-2.55-2.93-1.06-4.84.24-7.44a6.92,6.92,0,0,0-3.36-.24c-.06,2.47,1.18,3.62,1,6.24a18.87,18.87,0,0,1-2.16-1.52c.55-.3-6.22,2.05-1.49,1.74-2.38.16-2.48,0-5-1.66a11,11,0,0,0-1.44,3.12,8.46,8.46,0,0,1-1.92-1.2c-.55,2.85,1.42,4.19,3.12,6-.21.43-4.25,1.07-4.44,1.08Q45,49,43.8,47.6A4.79,4.79,0,0,0,41.52,47,8.25,8.25,0,0,0,42,49.68q-.71-.26-1.44-.48c-.53,2.11,1.61,1.64,2.84,2.69,2.12,1.8,1.79,3.38,3.16,5.71-3.72,3-3.59-1.38-4.53-2.41-2.08-2.27-5.46-2.45-3.39,1.69-3.19.55-3.14,4.42-1.81,5.77,1.66,1.68,5.24,2,7.33,2.87-4,3-4.41-.77-8.16,0,0,0,3.58,2.8,3.36,2.8-2.51-.65-3.53,1.66-2.4,3.92-1.73-.28-2.61-1.92-4.28-1.92.39,2-1.44,1.71-3.19,2.21C32,74.53,35.45,75,38.57,75Z" transform="translate(-5 -4.29)"/><path class="logo-white" d="M70,34.32v1.44C70.7,35.41,70.54,34.85,70,34.32Z" transform="translate(-5 -4.29)"/><path class="logo-white" d="M109,36.88a1.56,1.56,0,0,0-.72,1.2,1.58,1.58,0,0,0,1,.24A1.06,1.06,0,0,0,109,36.88Z" transform="translate(-5 -4.29)"/><path class="logo-white" d="M92,37.32c-1.47-.19-2.14.57-2,2C91.55,39.12,92.37,39.07,92,37.32Z" transform="translate(-5 -4.29)"/><path class="logo-white" d="M66,45.11c0,1.2-.3-.53.24.42-.06-1.47.73-6.25-1.48-6.21C62.07,39.37,65.81,44.81,66,45.11Z" transform="translate(-5 -4.29)"/><path class="logo-white" d="M78.48,43.2c.39-1.16-.26-2-1.44-2.4Q76.31,44.25,78.48,43.2Z" transform="translate(-5 -4.29)"/><path class="logo-white" d="M75,47c0-1.33-1.89-5-3.6-4.2-1.11.52-.42,1.87-.16,2.49C72.18,47.62,72.27,47.54,75,47Z" transform="translate(-5 -4.29)"/><path class="logo-white" d="M84.72,43.84l-.72-1C84,44.32,83.79,44.77,84.72,43.84Z" transform="translate(-5 -4.29)"/><path class="logo-white" d="M105.44,46.08c-.34-1-.37-1.24-1.44-1.44C104,46,104.06,47,105.44,46.08Z" transform="translate(-5 -4.29)"/><path class="logo-white" d="M67.68,48.72c1.73-1.15.1-2-1.2-2.4A1.9,1.9,0,0,0,67.68,48.72Z" transform="translate(-5 -4.29)"/><path class="logo-white" d="M75.84,47.36c-1.12,1.83,3.19,7.18,4.62,7.06C82.54,54.25,77.4,47.58,75.84,47.36Z" transform="translate(-5 -4.29)"/><path class="logo-white" d="M98.76,47.28a1.94,1.94,0,0,1,.24,1.2C99.6,47.88,99.46,47.74,98.76,47.28Z" transform="translate(-5 -4.29)"/><path class="logo-white" d="M116.16,48.24c-1.15-1.15-7.76,10.31-8.28,6-.22-1.86,5.93-5.2,2.15-6.52-2-.7-4.59,4.18-5.63,5,.06.08-1.18-5.23-1.68-3.36-.34,1.26,0,0,.3,2.45.22,1.53,2.18,2.48,2.58,3.91.93,3.38-1.42,5.32,2.64,7.44,1.41-1.88,1.73-2.3.72-4.32,2,.81,6.44.78,7-2.16.16-.9-1.2-2-1.2-3.12C114.71,51.71,116.63,50.31,116.16,48.24Z" transform="translate(-5 -4.29)"/><path class="logo-white" d="M82.32,51.84c.38-1.52-.83-2.56-1.68-3.84C81,49.2,81,51.41,82.32,51.84Z" transform="translate(-5 -4.29)"/><path class="logo-white" d="M122.64,49.32q.66.08,1-.72Q122.5,47.84,122.64,49.32Z" transform="translate(-5 -4.29)"/><path class="logo-white" d="M121.44,55.44c.09-1.14-.12-4.15-1.2-5C119.65,52.14,119.24,54.82,121.44,55.44Z" transform="translate(-5 -4.29)"/><path class="logo-white" d="M95.52,52.32c1-.48-.32-1.38-1-1.68C94.73,52.14,94.48,53.5,95.52,52.32Z" transform="translate(-5 -4.29)"/><path class="logo-white" d="M155.56,54c2.43-2.83,1.56-3.83-1.41-2.41-.87.41-2.17,2.7-2.67,3.37C153,54.54,153.88,53.57,155.56,54Z" transform="translate(-5 -4.29)"/><path class="logo-white" d="M67,56.4c1.37,1.49,4.07,3.16,4.58.37.31-1.69-3.49-5.19-4.82-5.65C65.74,53.56,68.81,54,67,56.4Z" transform="translate(-5 -4.29)"/><path class="logo-white" d="M135.6,53.32q2.33-1.42-1-1.92C134.72,51.81,134.85,53.32,135.6,53.32Z" transform="translate(-5 -4.29)"/><path class="logo-white" d="M94,52.84l-1-.48C93,53.19,94,53.76,94,52.84Z" transform="translate(-5 -4.29)"/><path class="logo-white" d="M116.5,55.21c1.21,3.46.58,5.11,4.5,4.74,0,1.28-.13,1.37,1,1.37,0-1.54.63-4.61-.75-5.58C118.19,62.19,120.91,46.7,116.5,55.21Z" transform="translate(-5 -4.29)"/><path class="logo-white" d="M87.84,53.28,87.6,55a2.66,2.66,0,0,0,1.68-.72Z" transform="translate(-5 -4.29)"/><path class="logo-white" d="M126.24,53.52c-.11.9-.26.39.48,1C126.4,53.79,126.86,54.06,126.24,53.52Z" transform="translate(-5 -4.29)"/><path class="logo-white" d="M163.2,55c1.05-1.05-1.83-2-2.64.48C161.7,55.89,162.39,56.07,163.2,55Z" transform="translate(-5 -4.29)"/><path class="logo-white" d="M103,55.2c-.55-.81-.63-1.55-1,.12C102.14,55.34,102.9,55.39,103,55.2Z" transform="translate(-5 -4.29)"/><path class="logo-white" d="M154.8,55.4c-.74-.37-1.09.63-1.92,1C153.92,58.44,154.59,57.1,154.8,55.4Z" transform="translate(-5 -4.29)"/><path class="logo-white" d="M35.76,57.12c.34-.48.19-.37.24-.72Z" transform="translate(-5 -4.29)"/><path class="logo-white" d="M160,57.32q-1.17-.36-1,1Q160.5,58.82,160,57.32Z" transform="translate(-5 -4.29)"/><path class="logo-white" d="M78.48,60a3.2,3.2,0,0,0-2.64-2.88C76.2,57.66,77.62,60.86,78.48,60Z" transform="translate(-5 -4.29)"/><path class="logo-white" d="M99,57.8C99.78,57.23,99,57,99,57.8Z" transform="translate(-5 -4.29)"/><path class="logo-white" d="M185,57.36q-1,2.2.72,2.4Z" transform="translate(-5 -4.29)"/><path class="logo-white" d="M80.64,60c1.82.61.62-1.72-1-1.92Z" transform="translate(-5 -4.29)"/><path class="logo-white" d="M102,64.8l1.44,1c1.63-2.65-.35-5.83-2.16-7.44Z" transform="translate(-5 -4.29)"/><path class="logo-white" d="M59,61.08c-1.22-1-1.45-1.27-1.92.24Q59.12,62.28,59,61.08Z" transform="translate(-5 -4.29)"/><path class="logo-white" d="M91.2,60.24c-1,3,.32,3.28,2.4,5.52C93.6,63.7,93,61.45,91.2,60.24Z" transform="translate(-5 -4.29)"/><path class="logo-white" d="M130.32,60.72c.43-.32.14-.26.24-.48Z" transform="translate(-5 -4.29)"/><path class="logo-white" d="M84.12,61.88c-1.63-.38-4-1.33-5-.24,1.86,5.54,2,3.13-3.36,2.88.4,1.36,2.88,3.46,4.34,3.5,2.68.07,2.38-1.82,2.14-4.7Q84.17,64,84.12,61.88Z" transform="translate(-5 -4.29)"/><path class="logo-white" d="M115.44,61.32l-.72-1Q114.72,61.43,115.44,61.32Z" transform="translate(-5 -4.29)"/><path class="logo-white" d="M126,64.32C131.92,60.77,121.74,59.37,126,64.32Z" transform="translate(-5 -4.29)"/><path class="logo-white" d="M95.76,63.12c.7-1,0-1.72-1.2-2.16A1.88,1.88,0,0,0,95.76,63.12Z" transform="translate(-5 -4.29)"/><path class="logo-white" d="M117.84,61q-1.15.51-.48,1.44C118.54,61.93,119,61.69,117.84,61Z" transform="translate(-5 -4.29)"/><path class="logo-white" d="M162.64,60.8c-1.32,1.42-3.6,2.45-5.26,3.43-1.39.82-5.38,2.09-1.7,2.09-1,1.55-4.81,2.52-1.92,4.32,1.57,1,3.89-.58,5.12-1.36C161.2,67.81,166.79,62.94,162.64,60.8Z" transform="translate(-5 -4.29)"/><path class="logo-white" d="M74,62.4c-.35-.2-2.1-1.07-2.11.12A2,2,0,0,0,74,63.6Z" transform="translate(-5 -4.29)"/><path class="logo-white" d="M89.28,66.32c2.54,0-.36-3.45-1.44-4.08C86.69,63.77,88.25,64.84,89.28,66.32Z" transform="translate(-5 -4.29)"/><path class="logo-white" d="M70,63.32q.36-1.64-1.92-1A1.9,1.9,0,0,0,70,63.32Z" transform="translate(-5 -4.29)"/><path class="logo-white" d="M69.12,65c-1.64-.33-2.92.13-4.56.48C66.19,66.64,68.39,67.95,69.12,65Z" transform="translate(-5 -4.29)"/><path class="logo-white" d="M124.2,69.12a3.69,3.69,0,0,0,.48-2.88A6,6,0,0,0,123,69.36Z" transform="translate(-5 -4.29)"/><path class="logo-white" d="M72.76,67.32c1.08,0-.87-.76-.72-.72Z" transform="translate(-5 -4.29)"/><path class="logo-white" d="M117,68.08c.75.75,1-.26,1.44-1C117.26,66.53,117,66.8,117,68.08Z" transform="translate(-5 -4.29)"/><path class="logo-white" d="M147.25,115.87q.43,1.79-1,1.45a11.23,11.23,0,0,0,5.42,1.79c2.33-.19,3.85-2.55,6.24-4,1.62-1,3.36-1.26,3.93-3,.42-1.29.19-2.72-1.12-2.43,1.93-2.46.33-7.7-1.12-10.38L157.5,104a5,5,0,0,1,1.43,2.5,7.06,7.06,0,0,1-1.39,4.22C155.43,113.72,150.8,115.71,147.25,115.87Z" transform="translate(-5 -4.29)"/><path class="logo-white" d="M160,98.48q-1.07-.06-.35.78Z" transform="translate(-5 -4.29)"/><path class="logo-white" d="M158.75,98.6C158.34,98.4,157.71,98.8,158.75,98.6Z" transform="translate(-5 -4.29)"/><path class="logo-white" d="M159.38,98.63C159.26,98.24,158.23,98.9,159.38,98.63Z" transform="translate(-5 -4.29)"/><path class="logo-white" d="M143.5,76.49c.73-1.17,3.5-2.12,3.5-3.36-1.3,0-5.86.46-6.71-.55-2.2-2.64,2.57-3.43-1.47-3.18-1.25.08-3.36,2.93-4.85,1.82s1-2.46,1.82-2.88c-1.61,0-1.07.23-2.11-1.85-1.47,1-3.45,3.18-5.21,3.71-.22.07-2.9,0-2.89,0-1.53.5-3.71.19-4.11,2.36-.22,1.23.31,1,.25,1.52.52-4.13,2.46,7.77.76,2.08L121.92,78a4.69,4.69,0,0,0,2.54,2.31c.5.7-.46,1.95-.46,2.54q2.07,1.07,2.42-1.27,2.12-2.13-1.27-2.65a4.91,4.91,0,0,1,1.19-2.84c1.76-2.68,4-1.78,7.4-1.78-.08.29-1.77,2.28-1.72,2.41.6,0,3-.57,3.43.07-1.22,2.33-3.17,1.4-4.54,2.59-1.57,1.37-1.56,4.76-1.93,7.49,4.57-1.07,5.84,8,6.75,10.87a27.3,27.3,0,0,0,6.25-2.9c0,2.87,5,1,6.82.83,3.71-.25,6.23,1.12,9.51,2.71.85-2.82,1.24-2,.63-4.21-.47-1.75-1.69-2.6-2.74-3.84-.63-.74-2.44-1.17-2.23-2.51.24-1.58,3.93.16,4-2-1.81-.59-4.66.61-5.36-1.92,2.29-.41,7.24-.49,8.63-2.64-1.9-.82-5.06,0-7,.31-2.76.41-3.21-.09-5.59-.55.26-2.1,5.39-3.2,2.79-4.09-1.2-.41-2.64,1.21-4,1.21S145.33,76.38,143.5,76.49Z" transform="translate(-5 -4.29)"/><path class="logo-white" d="M78,68.4l-1-.48C77.26,68.58,77.56,69.29,78,68.4Z" transform="translate(-5 -4.29)"/><path class="logo-white" d="M85.44,69.36c1.15,1.15,1.3,2.08.24-1.44Z" transform="translate(-5 -4.29)"/><path class="logo-white" d="M168.24,71.2c1.6-.43,1.23-1,1.44-2.88C168,68.32,167.42,69.56,168.24,71.2Z" transform="translate(-5 -4.29)"/><path class="logo-white" d="M61.8,72.32H63c0-1-2.36-1.42-2.88-1.44A2.21,2.21,0,0,0,61.8,72.32Z" transform="translate(-5 -4.29)"/><path class="logo-white" d="M52.82,72.32c.45-.9-.48-1-1.25-1C51.85,72,52.09,72.32,52.82,72.32Z" transform="translate(-5 -4.29)"/><path class="logo-white" d="M58.32,72.32a1.26,1.26,0,0,0,1-.32c-.51-1-1.41-1-1.92,0Z" transform="translate(-5 -4.29)"/><path class="logo-white" d="M79.44,76.8l1.68-2.16c-1.57-1.51-6.4-3.18-5,0-2.87,0-4.74-2.51-7.68-1.92C69.7,76.28,76.5,76.7,79.44,76.8Z" transform="translate(-5 -4.29)"/><path class="logo-white" d="M162,75.6c-1.59.27-1.15-.43-2.4-.72q1.52-.66,1.44-1.92c-2.7-.45-1.69,2.41-3.36,4.08,1.51-.16,7.88-.6,8-2.44C165.74,73.35,161.89,72.17,162,75.6Z" transform="translate(-5 -4.29)"/><path class="logo-white" d="M30,74.16c.51-.56.34-.26.24-1Z" transform="translate(-5 -4.29)"/><path class="logo-white" d="M169.44,73.2l-.48.24C169.48,73.57,169.27,73.43,169.44,73.2Z" transform="translate(-5 -4.29)"/><path class="logo-white" d="M52.32,76.8C51.6,76,49.83,73,49.27,74,48.2,75.84,51.51,78.42,52.32,76.8Z" transform="translate(-5 -4.29)"/><path class="logo-white" d="M31.2,75.32C31.9,75.32,31.58,74.56,31.2,75.32Z" transform="translate(-5 -4.29)"/><path class="logo-white" d="M67,76.12l-1.68-.24c.52,1.17.64,1.44,1.92,1.44Z" transform="translate(-5 -4.29)"/><path class="logo-white" d="M167.27,78.57c.37.74-2.64,7.44.7,3.57.74-.86,2.68-5.82,1.83-6.27-1.28-.68-3,1.81-4.3,2.46Z" transform="translate(-5 -4.29)"/><path class="logo-white" d="M71,77.76a1.75,1.75,0,0,0-.72-.72C70.61,77.66,70.08,77.42,71,77.76Z" transform="translate(-5 -4.29)"/><path class="logo-white" d="M129,77.32C126.5,79.78,130.63,79,129,77.32Z" transform="translate(-5 -4.29)"/><path class="logo-white" d="M154.32,78.24c-2.52,2.52,4.1,1.09,1.68-.48A2,2,0,0,1,154.32,78.24Z" transform="translate(-5 -4.29)"/><path class="logo-white" d="M66.72,78.72c-.49-.52-.32-.47-1.2-.72C66,78.52,65.84,78.47,66.72,78.72Z" transform="translate(-5 -4.29)"/><path class="logo-white" d="M51.08,80.4c-2.39-2.39-9.44-2.88-12.24-.24-1.59,1.51-.41,3.58-2.74,5.08-1.16.74-3.36.18-4,1.4,1.15.74,4.71,1.35,5.28,1.92-2.43,2.11-5.83-.31-7,2.76s2.31,2.48,4.32,3.48q-2.64-2.1.24-2.64a1.32,1.32,0,0,1-.48-1.92,19.82,19.82,0,0,0,15.36-.72L41,88.08c0-1.5,5.26-2.46,6-3.12.44-.39-.69-2.48-.48-2.64C48.31,81,49.8,82.1,51.08,80.4Z" transform="translate(-5 -4.29)"/><path class="logo-white" d="M27,105.89C27.82,104.9,27,105.77,27,105.89Z" transform="translate(-5 -4.29)"/><path class="logo-white" d="M58,165.12c-2-.89-3.15-.54-1.72-2.64-2.76,0-6.76-1.32-9.58-1.88-6.47-1.27.26-2.57.26-5.8-1.53-.12-5.26-.07-2-1.68-3.38-4.16.54-3.66,2.7-6.48-2-1.22-4.47.83-.87-2.29,1.47-1.27,5.48-1.69,6.27-3.23-1.94.31-3.73,0-4.85-1.76-1.91-2.94.08-3.49,2.08-5.1C52,132.94,53.26,132,54,130q-.19-1.42-.43-2.84A2.57,2.57,0,0,0,55.15,126c1.18-3.69.24-7-.08-10.82-.39-4.58.2-6.21,5-3.62,3.85,2.07,3,5.35,6.29,8.4.87.82,3.36,3.77,4.42,4.08a3.35,3.35,0,0,0,1.72-1,7.79,7.79,0,0,1,3,.83c1.34.16,3.5,2.36,3.64-.35.17-3.38-5.1-1.42-6.61-1.68-1.91-.33-5.67-2.46-6.39-4.56,0-.12,1.59-4.49,1.59-4.56q2-1,.12-3.24t.06-3.45c.81-1.54,4-2.71,5.54-3.27a20.35,20.35,0,0,1,6.89-1.26,8,8,0,0,1,3,.66,1.57,1.57,0,0,0,1.47-1.92c2.36,0,3.08,2.31,5.27,2.82,2.88.67,3.15-1.71,3.87-4.5,1.06-4.1,2.19-10.39-.28-14.21a22,22,0,0,0-7.63-6,32.39,32.39,0,0,0-8.34-.24c-2.14.61-2.47,2.85-3.92,3.6s-4.65,1-6.38,1.44a2.42,2.42,0,0,0-2.44-1,1.11,1.11,0,0,0,.19,1.57c-.87.6,3.67,1.42-.91,1.51-1.16,0-2-1.08-2.94-1.08.23,1.13,2.78,3.29,2.77,3.9q-.23,1.26-2.32.85a5,5,0,0,0,.46,3.5c-5.71,1.14-.37,2.67-3,5.25-2.41,2.4-4.44-1.48-2.51,3.25-1.58.58-2.45.87-1.22,2.17-1.44.14-4.83-.36-4.38,1.42-2-.28-4.65,1.19-6.49.55-1.64-.56-2.62-3.52-4.68-2.78-2.77,1,1.89,2.52-3.87,2a16.76,16.76,0,0,0-8.51,1.15c5-.42,1.46.22,2.45,3,.52,1.48,1.91,2.19,3,3.25-1.77,2.33-2.57-.2-3.66.05-1.61.37-.81-.12-2.37,1.18-1.12.94-2.1,2.34-1.48,3.63,1.08,2.25,5.36.36,5.58,3,.06.72-3.39,3.06-3.83,4.37.73,0,4.64,1.58,4.75,2.5.08.66-1.14-.22-1.45.62-.46,1.25-2.5.18-2.25,2.72.16,1.68,1,2.05,2.65,2.32-4.39,2,.58,2.74.81,6.39a5.72,5.72,0,0,1-1.14,4c-.12.18-2.56,3.13-2.56,2.52,0,1.81,2.85,1.65,3.15,3.41C31.7,151.58,27,151,27,153.2c2.62.6,3,.71,2.37,3.12H31c-2.22,2.72,1.86,4.51,5,5-5.84,5.84,5.63.74,7.81,2.16-3.2,3.94-6.5,9-10.06,12.48,1,1,12-5,14.47-5.28-3.1,5.31,8,1.64,9.32-.24-1.43-1.14-2.42.41-2.7-1.68C54.81,168.44,57.82,165.53,58,165.12Z" transform="translate(-5 -4.29)"/><path class="logo-white" d="M27.6,82.08a2.67,2.67,0,0,1,1.68-2.4C26.55,78.66,24.92,81.19,27.6,82.08Z" transform="translate(-5 -4.29)"/><path class="logo-white" d="M35.76,81.12c-.5-1-3.39-1.22-4.32-1.44C31.9,80.86,35.4,84,35.76,81.12Z" transform="translate(-5 -4.29)"/><path class="logo-white" d="M10.32,81.32q1.2.54,1.44-.48Q10.38,79.95,10.32,81.32Z" transform="translate(-5 -4.29)"/><path class="logo-white" d="M49,85.68a1.49,1.49,0,0,1,1-.36C48.37,84,49.4,85.41,49,85.68Z" transform="translate(-5 -4.29)"/><path class="logo-white" d="M166.08,87.32c.4,0-6.38,1.56-4.74.5-.57.37-2.1,2.09-1,2.46A4.66,4.66,0,0,0,166.08,87.32Z" transform="translate(-5 -4.29)"/><path class="logo-white" d="M182,91.56c0-.94-2,.15-2,1Z" transform="translate(-5 -4.29)"/><path class="logo-white" d="M163,100.08c2.72-.72,11.18-4,11.19-7.17,0-3.35-4.25,1.36-5.17,2.13C167.49,96.29,163.53,98.37,163,100.08Z" transform="translate(-5 -4.29)"/><path class="logo-white" d="M181,100.32Z" transform="translate(-5 -4.29)"/><path class="logo-white" d="M172,127.72C172.19,127.47,172,127.44,172,127.72Z" transform="translate(-5 -4.29)"/><path class="logo-white" d="M194.88,145.2c2.86-1.79.92-3.08-.28-5.87a23.66,23.66,0,0,1-2.18-6.84c-.15-1.52-.18-2.91-.38-4.29l-1-.52.36-2.7c-.77-1.3-.13-1.75-2.52-2.1,1.72-4.3.26-4.86-2.88-7.92.43-.26,1.48-.9,1.29-1.59a9.92,9.92,0,0,1-.23-1.82q.28-1.39-1.38-1.2c-1.52-2.67-3.4-2.26,1.32-4.62-1.64-.57-2.11-.27-2-2.25-2,.73-4-1.39-4-2.94-1.11,1.27-6.7,3.43-8,2.17,2-3.53,10-7.38,14-7.44v-.72c-5.94-1.36-10.28,6.76-16,6.76,0-2.82,8.31-6.29,5.37-8.22-.68-.45-6.93,6-7.69,7.05-3.81,5.18,1.63,1.33,3.52,4.74.22.4-1.29,2.38-1.22,3,.2,2,1.14,2.46.69,4.47-.42,1.84-2.8,3.37-2.66,5.22.19,2.7,1,.57,1.75,1.74.52.86.65,2.85,1.45,3.58,2.58,2.35,7.16-2,8.55-.7-2.78,1.83-6.45,2.68-8.61,5.36,2.55,1.08,7.39-.34,4.38,4.2-1.2,1.8-6.26,4.7-8.29,5-2.74.36-6.24-1.2-7.54-3.49-.66-1.17-1.73-8.78-4.45-7.4.76,2,1.85,2.76-.24,3.82,0-3.58-8.09-6.54-10.78-9.73-2.83-3.35-4-7.85-7.33-10.79-2.56-2.23-8.94-5.79-12.44-6.25-3.75-.49-1.28.65-4.5,2.43-1.36.75-1.28-1.11-1.65-1.67-.86,1.82-5.67,3.67-6.82,1.91-1,.27-2.23,1.68-3.32,2.14a25.81,25.81,0,0,1-4.93.93c-2.75.52-6.25.87-8.54,2.63-1.77,1.36-2.94,3.46-4.47,5.07a81.16,81.16,0,0,0-5.45,6.61c-2.94,3.82-7.06,6.82-10.8,9.77a16.5,16.5,0,0,1-1.76,1.73s-1.25,3.8-1,3.58c-2.49,2-9.54.81-12.71,1.67,2.58,1.34,8.07-1.93,9.88.72.54.79-.45,2.69-.93,3.23-.85,1-2.66.23-3.31,1.54,3.4.45,6.63-.28,5.62,3.94-.5,2.11-3.21,2.47.49,3.22-2.06,0-2,1.08-4,1.56.11,1.28,4,0,5,1.44-.77.38-3.25,1.41-3.25,2.75,3.68-.2,5.57-1,4.75,3.5a16.92,16.92,0,0,1,3-.25c-.54,1.38-1.74,2.07-2.16,3.56a6,6,0,0,0,1.36-.24c-3.84,4.23,3.53,1.93,5.56,1.1s5.89-2.62,4.49,1-4.65,2.85-5.33,7c3.06-2,5.84-2.73,8.48-5.26,3-2.91,3.82-1.7,7.59-3.35,2.21-1,5.69-2.91,8-4.22,1.47-.83,2.11,0,2.61-1.94-.09.33-5.85-4.4-1.19-3.46-.1-5-5-6.63-4.24-12.07.53-3.75,1.94-9.66,4.83-12.36,3.22-3,7.9-3.43,11.94-4.52,1.85-.5,3.72-1.36,5.15-.82,1.05.4,2.41,2.31,3.32,3.06,2.07,1.71,6.34,3.06,7.92,4.71,2,2.11-.59,2.31.18,4l1.86,1.78q1.05,2,2.51.19c2,.25,3.75-2.11,2.76,1.4-.3,1.07-4.56,3-4.43,3.68.24,1.35,1.73,1,2.89,1.05q.85-2.67,3.42-1.14a1.27,1.27,0,0,0,1.69.09c0,2.78-.24,3.41-3,4.35-1.63.54-6.1.41-3.09,2.25,1.09.66,2.8-.25,3.91.14,1.5.53,1.23,1,2.6,2a15.38,15.38,0,0,0,7.62,3.25c0-2.34-7.22-3-8.47-5,1.6.4,3.29-.31,4.94,0-.83-2.76,3.88-2.79,5.76-3.25a12.76,12.76,0,0,1,4.08-.8,95.54,95.54,0,0,1,16.33,1.93c-.52-2.18-3.24-2.73-4.56-4.32,2.11-1,7.27.41,8.64-1-1.62-5.22-9.73-2.66-11-5.28a16.5,16.5,0,0,1,16.08-6.4c-1.24,3.59-4.34.67-.9,4a34.07,34.07,0,0,1,4.5,4.56c-2.5,1,.26,1.41-2.6,2.52-1.39.54-2.94-.6-4.36-.12.59,1.5,7,3.56,8.36,4.27C195.49,150,198.23,152.28,194.88,145.2Z" transform="translate(-5 -4.29)"/><path class="logo-white" d="M36,95c0-.57-.76-.64-1.2-.72A1.59,1.59,0,0,0,36,95Z" transform="translate(-5 -4.29)"/><path class="logo-white" d="M189.36,95.52a.91.91,0,0,0,.72-1,1.89,1.89,0,0,0-2.4.72Q188.26,96.26,189.36,95.52Z" transform="translate(-5 -4.29)"/><path class="logo-white" d="M43.2,97.68a4.18,4.18,0,0,0,2.4,0C45.18,96,42.64,96,43.2,97.68Z" transform="translate(-5 -4.29)"/><path class="logo-white" d="M32.16,97.68q.87.87,1.68.24C33.24,97.11,32.54,96.53,32.16,97.68Z" transform="translate(-5 -4.29)"/><path class="logo-white" d="M26.4,107.28l.24-1c-1.59,0-2.44.68-3.84,1.44C24.36,108.35,25.35,108.86,26.4,107.28Z" transform="translate(-5 -4.29)"/><path class="logo-white" d="M25,110.64a5.31,5.31,0,0,0,2,.68C26.87,109.71,25.61,109.51,25,110.64Z" transform="translate(-5 -4.29)"/><path class="logo-white" d="M149,120.28l1,.24c.33-1,.05-1.2-1-1.2Z" transform="translate(-5 -4.29)"/><path class="logo-white" d="M180.48,153.36c.95-.95-1.27-2-2.16-2.16Q179.39,152.29,180.48,153.36Z" transform="translate(-5 -4.29)"/><path class="logo-white" d="M181.92,153.88c.31.52,1,1.44,1.68,1.44A1.74,1.74,0,0,0,181.92,153.88Z" transform="translate(-5 -4.29)"/><path class="logo-white" d="M63.84,159.76c.71,1.46,3.62.66,4.32-1.44C66.21,157.93,65.44,158.61,63.84,159.76Z" transform="translate(-5 -4.29)"/><path class="logo-white" d="M163.68,158.4l.72.48C164,158.4,164.41,158.7,163.68,158.4Z" transform="translate(-5 -4.29)"/><path class="logo-white" d="M169.44,162.32h1l-2.88-1.44Z" transform="translate(-5 -4.29)"/><path class="logo-white" d="M70.08,166.56l-.72,1a1.79,1.79,0,0,0,2.16-1.2A2.23,2.23,0,0,0,70.08,166.56Z" transform="translate(-5 -4.29)"/><path class="logo-white" d="M65.52,168.48a4.77,4.77,0,0,0,2.16-2.16Q66,166.13,65.52,168.48Z" transform="translate(-5 -4.29)"/><path class="logo-white" d="M99,169.54c-1.1.56-1.77,1.45-3,1.78V168c-2.95.67-3.21-.9-5.74.59-2.25,1.33-3.09,3.89-5.76,5,1.09.93,1.38,2.5,2.5,3.33.76.57.29-.38,1.58.34,1.48.83,4.18.82,3.42,3.5,4.21-1.53,4.09-.31,4,3.84.92.46,4.31-2.68,5.52-3.24q.28,1.49.48,3c3.11-1.57,18.76-6.34,15.25-11.67C115,169.2,102.25,167.91,99,169.54Z" transform="translate(-5 -4.29)"/><path class="logo-white" d="M129.36,167.76c-1.18,2.07-6.11.51-6.72,3.84-.49,2.71,2.29,3.68,4.17,3.83a5.06,5.06,0,0,0,5.16-2.95C132.85,170.5,132.2,168.47,129.36,167.76Z" transform="translate(-5 -4.29)"/><path class="logo-white" d="M61.92,173.92a5.28,5.28,0,0,0,2.64-3.6C63.32,170.32,62.15,172.85,61.92,173.92Z" transform="translate(-5 -4.29)"/></g></svg>
